<?xml version="1.0" encoding="utf-8"?>
<!-- Generator: Adobe Illustrator 27.0.0, SVG Export Plug-In . SVG Version: 6.00 Build 0)  -->
<svg version="1.1" id="cd" xmlns="http://www.w3.org/2000/svg" xmlns:xlink="http://www.w3.org/1999/xlink" x="0px" y="0px"
	 viewBox="0 0 48 48" style="enable-background:new 0 0 48 48;" xml:space="preserve">
<style type="text/css">
	.st0{fill:#FFFFFF;}
</style>
<path id="primary_00000125584732750178024060000014009600495979994787_" class="st0" d="M21.4,24.9c-1.2,0-2.1,1-2.1,2.1
	s1,2.1,2.1,2.1c1.2,0,2.1-1,2.1-2.1S22.6,24.9,21.4,24.9z"/>
<path id="primary_00000089565186782109846340000006859010119510876329_" class="st0" d="M21.4,18.8c-1.2,0-2.1,1-2.1,2.1
	s1,2.1,2.1,2.1c1.2,0,2.1-1,2.1-2.1S22.6,18.8,21.4,18.8z"/>
<path id="primary_00000001652338360885261680000012559516573848114357_" class="st0" d="M21.4,12.7c-1.2,0-2.1,1-2.1,2.1
	s1,2.1,2.1,2.1c1.2,0,2.1-1,2.1-2.1S22.6,12.7,21.4,12.7z"/>
<path id="primary_00000183938892299333865090000010176838882083300242_" class="st0" d="M21.4,6.5c-1.2,0-2.1,1-2.1,2.1
	s1,2.1,2.1,2.1c1.2,0,2.1-1,2.1-2.1S22.6,6.5,21.4,6.5z"/>
<path id="primary_00000063608816895741571740000013716925447607521926_" class="st0" d="M21.4,0.4c-1.2,0-2.1,1-2.1,2.1
	s1,2.1,2.1,2.1c1.2,0,2.1-1,2.1-2.1S22.6,0.4,21.4,0.4z"/>
<path id="primary_00000077315890207693829370000009571500799671450769_" class="st0" d="M29.6,27c0-1.2-1-2.1-2.1-2.1
	c-1.2,0-2.1,1-2.1,2.1s1,2.1,2.1,2.1C28.7,29.1,29.6,28.2,29.6,27z"/>
<path id="primary_00000067197448061417981020000016472399119796002704_" class="st0" d="M35.8,27c0-1.2-1-2.1-2.1-2.1
	c-1.2,0-2.1,1-2.1,2.1s1,2.1,2.1,2.1C34.8,29.1,35.8,28.2,35.8,27z"/>
<path id="primary_00000070076834937864387800000011695580287443455155_" class="st0" d="M41.9,27c0-1.2-1-2.1-2.1-2.1
	s-2.1,1-2.1,2.1s1,2.1,2.1,2.1S41.9,28.2,41.9,27z"/>
<path id="primary_00000001662650532636934770000013009739486390529189_" class="st0" d="M48,27c0-1.2-1-2.1-2.1-2.1s-2.1,1-2.1,2.1
	s1,2.1,2.1,2.1S48,28.2,48,27z"/>
</svg>
