<?xml version="1.0" encoding="utf-8"?>
<!-- Generator: Adobe Illustrator 27.0.0, SVG Export Plug-In . SVG Version: 6.00 Build 0)  -->
<svg version="1.1" id="Capa_1" xmlns="http://www.w3.org/2000/svg" xmlns:xlink="http://www.w3.org/1999/xlink" x="0px" y="0px"
	 viewBox="0 0 28.5 4" style="enable-background:new 0 0 28.5 4;" xml:space="preserve">
<style type="text/css">
	.st0{fill:#969696;}
</style>
<g>
	<path class="st0" d="M20.2,2.1c0,0.8,0.7,1.5,1.5,1.5l5,0c0.8,0,1.5-0.7,1.5-1.5c0-0.8-0.7-1.5-1.5-1.5l-5,0
		C20.8,0.6,20.2,1.3,20.2,2.1z"/>
	<path class="st0" d="M8.2,2.1c0-0.8-0.7-1.5-1.5-1.5l-5,0c-0.8,0-1.5,0.7-1.5,1.5c0,0.8,0.7,1.5,1.5,1.5l5,0C7.5,3.6,8.2,3,8.2,2.1
		z"/>
	<path class="st0" d="M10.2,2.1c0,0.8,0.7,1.5,1.5,1.5l5,0c0.8,0,1.5-0.7,1.5-1.5c0-0.8-0.7-1.5-1.5-1.5l-5,0
		C10.8,0.6,10.2,1.3,10.2,2.1z"/>
</g>
</svg>
