<?xml version="1.0" encoding="UTF-8" standalone="no"?>
<svg
   width="4.6427817mm"
   height="4.999999mm"
   viewBox="0 0 4.6427817 4.999999"
   version="1.1"
   id="svg8"
   inkscape:version="1.1 (c68e22c387, 2021-05-23)"
   sodipodi:docname="calendar.svg"
   xmlns:inkscape="http://www.inkscape.org/namespaces/inkscape"
   xmlns:sodipodi="http://sodipodi.sourceforge.net/DTD/sodipodi-0.dtd"
   xmlns="http://www.w3.org/2000/svg"
   xmlns:svg="http://www.w3.org/2000/svg"
   xmlns:rdf="http://www.w3.org/1999/02/22-rdf-syntax-ns#"
   xmlns:cc="http://creativecommons.org/ns#"
   xmlns:dc="http://purl.org/dc/elements/1.1/">
  <defs
     id="defs2" />
  <sodipodi:namedview
     id="base"
     pagecolor="#353535"
     bordercolor="#666666"
     borderopacity="1.0"
     inkscape:pageopacity="0"
     inkscape:pageshadow="2"
     inkscape:zoom="22.4"
     inkscape:cx="11.629464"
     inkscape:cy="13.459821"
     inkscape:document-units="mm"
     inkscape:current-layer="layer2"
     inkscape:document-rotation="0"
     showgrid="false"
     inkscape:pagecheckerboard="false"
     inkscape:window-width="1920"
     inkscape:window-height="1017"
     inkscape:window-x="1912"
     inkscape:window-y="-8"
     inkscape:window-maximized="1" />
  <metadata
     id="metadata5">
    <rdf:RDF>
      <cc:Work
         rdf:about="">
        <dc:format>image/svg+xml</dc:format>
        <dc:type
           rdf:resource="http://purl.org/dc/dcmitype/StillImage" />
      </cc:Work>
    </rdf:RDF>
  </metadata>
  <g
     inkscape:groupmode="layer"
     id="layer2"
     inkscape:label="Layer 1"
     transform="translate(-74.0298,-56.464286)">
    <g
       id="g4"
       transform="matrix(0.00977259,0,0,0.00977259,73.851196,56.464286)"
       style="display:inline;fill:#767676;fill-opacity:1">
      <path
         d="m 482.513,83.942 c -7.225,-7.233 -15.797,-10.85 -25.694,-10.85 h -36.541 v -27.41 c 0,-12.56 -4.477,-23.315 -13.422,-32.261 C 397.906,4.475 387.157,0 374.591,0 h -18.268 c -12.565,0 -23.318,4.475 -32.264,13.422 -8.949,8.945 -13.422,19.701 -13.422,32.261 v 27.41 h -109.63 v -27.41 c 0,-12.56 -4.475,-23.315 -13.422,-32.261 C 178.64,4.475 167.886,0 155.321,0 H 137.05 C 124.488,0 113.733,4.475 104.786,13.422 95.841,22.367 91.365,33.123 91.365,45.683 v 27.41 H 54.823 c -9.9,0 -18.464,3.617 -25.697,10.85 -7.233,7.232 -10.85,15.8 -10.85,25.697 v 365.453 c 0,9.89 3.617,18.456 10.85,25.693 7.232,7.231 15.796,10.849 25.697,10.849 h 401.989 c 9.897,0 18.47,-3.617 25.694,-10.849 7.234,-7.234 10.852,-15.804 10.852,-25.693 V 109.639 c -10e-4,-9.9 -3.615,-18.464 -10.845,-25.697 z M 347.187,45.686 c 0,-2.667 0.849,-4.858 2.56,-6.567 1.711,-1.711 3.901,-2.568 6.57,-2.568 h 18.268 c 2.67,0 4.853,0.854 6.57,2.568 1.712,1.712 2.567,3.903 2.567,6.567 v 82.224 c 0,2.666 -0.855,4.853 -2.567,6.567 -1.718,1.709 -3.9,2.568 -6.57,2.568 h -18.268 c -2.669,0 -4.859,-0.855 -6.57,-2.568 -1.711,-1.715 -2.56,-3.901 -2.56,-6.567 z m -219.272,0 c 0,-2.667 0.855,-4.858 2.568,-6.567 1.714,-1.711 3.901,-2.568 6.567,-2.568 h 18.271 c 2.667,0 4.858,0.854 6.567,2.568 1.711,1.712 2.57,3.903 2.57,6.567 v 82.224 c 0,2.666 -0.855,4.856 -2.57,6.567 -1.713,1.709 -3.9,2.568 -6.567,2.568 H 137.05 c -2.666,0 -4.856,-0.855 -6.567,-2.568 -1.709,-1.715 -2.568,-3.901 -2.568,-6.567 z M 456.812,475.088 H 54.823 v -292.36 h 401.989 z"
         id="path2-2"
         style="fill:#767676;fill-opacity:1" />
    </g>
  </g>
</svg>
