<?xml version="1.0" encoding="UTF-8" standalone="no"?>
<svg
   version="1.1"
   x="0px"
   y="0px"
   viewBox="-255 347 81.777145 61.049435"
   xml:space="preserve"
   id="svg166"
   sodipodi:docname="client.svg"
   width="81.777145"
   height="61.049435"
   inkscape:version="1.1 (c68e22c387, 2021-05-23)"
   xmlns:inkscape="http://www.inkscape.org/namespaces/inkscape"
   xmlns:sodipodi="http://sodipodi.sourceforge.net/DTD/sodipodi-0.dtd"
   xmlns="http://www.w3.org/2000/svg"
   xmlns:svg="http://www.w3.org/2000/svg"><defs
     id="defs170" /><sodipodi:namedview
     id="namedview168"
     pagecolor="#505050"
     bordercolor="#ffffff"
     borderopacity="1"
     inkscape:pageshadow="0"
     inkscape:pageopacity="0"
     inkscape:pagecheckerboard="1"
     showgrid="false"
     inkscape:zoom="6.4"
     inkscape:cx="41.015625"
     inkscape:cy="42.578125"
     inkscape:window-width="1920"
     inkscape:window-height="1017"
     inkscape:window-x="-8"
     inkscape:window-y="-8"
     inkscape:window-maximized="1"
     inkscape:current-layer="svg166" /><style
     type="text/css"
     id="style2">
	.st0{enable-background:new    ;}
	.st1{fill:#FFFFFF;}
	.st2{fill:none;stroke:#FFFFFF;stroke-miterlimit:10;}
	.st3{fill:none;}
</style><path
     d="M -214.19215,402.74943"
     id="path104" /><g
     id="g160"
     transform="translate(-9.0921477,-19.450566)"
     style="fill:#767676;fill-opacity:1"><g
       id="g110"
       style="fill:#767676;fill-opacity:1"><g
         id="g108"
         style="fill:#767676;fill-opacity:1"><path
           d="m -185.2,420.7 c -1.3,0 -2.6,-0.4 -3.8,-1.1 l -13.7,-9 c -1,-0.7 -1.3,-2.1 -0.6,-3.1 0.7,-1 2.1,-1.3 3.1,-0.6 l 13.6,9 c 0.9,0.6 2.2,0.5 3.1,-0.3 0.9,-0.8 2.3,-0.8 3.2,0.2 0.8,0.9 0.8,2.3 -0.2,3.2 -1.3,1.1 -3,1.7 -4.7,1.7 z"
           id="path106"
           style="fill:#767676;fill-opacity:1" /></g></g><g
       id="g116"
       style="fill:#767676;fill-opacity:1"><g
         id="g114"
         style="fill:#767676;fill-opacity:1"><path
           d="m -194.1,427.5 c -1.3,0 -2.6,-0.3 -3.7,-1.1 l -8.1,-5.3 c -1,-0.7 -1.3,-2.1 -0.7,-3.1 0.7,-1 2.1,-1.3 3.1,-0.7 l 8.1,5.3 c 1.2,0.7 2.8,0.4 3.5,-0.8 0.7,-1.1 2.1,-1.4 3.1,-0.7 1.1,0.7 1.4,2.1 0.7,3.1 -1.3,2.1 -3.6,3.3 -6,3.3 z"
           id="path112"
           style="fill:#767676;fill-opacity:1" /></g></g><g
       id="g122"
       style="fill:#767676;fill-opacity:1"><g
         id="g120"
         style="fill:#767676;fill-opacity:1"><path
           d="m -176.3,413.7 c -2,0 -4.3,-0.7 -6.9,-2.3 l -12.8,-8.5 c -1,-0.7 -1.3,-2.1 -0.6,-3.1 0.7,-1 2.1,-1.3 3.1,-0.6 l 12.7,8.5 c 1.9,1.1 5.3,2.8 7.1,0.3 1.1,-1.6 0.9,-3.8 0.2,-4.4 -1,-0.8 -1.2,-2.2 -0.4,-3.2 0.8,-1 2.2,-1.2 3.2,-0.4 2.8,2.2 3.2,7.1 0.8,10.5 -1.4,1.8 -3.5,3.2 -6.4,3.2 z"
           id="path118"
           style="fill:#767676;fill-opacity:1" /></g></g><g
       id="g128"
       style="fill:#767676;fill-opacity:1"><g
         id="g126"
         style="fill:#767676;fill-opacity:1"><path
           d="m -175,404 c -0.4,0 -0.8,-0.1 -1.2,-0.4 l -16,-10.1 c -0.6,-0.4 -5.3,-3.2 -7.4,-8 -2.6,0.8 -5.2,1.6 -8.1,2.7 l -0.3,0.1 c -3.1,1.1 -9,3.3 -12.4,-0.6 -1.8,-2.1 -2.5,-4.1 -2.1,-6.2 0.8,-3.8 5,-5.9 8.4,-7.6 0.7,-0.3 1.3,-0.6 1.8,-0.9 l 0.7,-0.4 c 2.5,-1.4 5.1,-2.9 7.5,-4.5 5.4,-3.6 11.4,-0.2 11.7,-0.1 0,0 0.1,0 0.1,0.1 0,0 5.1,3.3 9.6,5.4 3,1.4 6.3,0.5 9.9,-0.5 0.8,-0.2 1.5,-0.4 2.3,-0.6 1.2,-0.3 2.4,0.4 2.7,1.7 0.3,1.2 -0.4,2.4 -1.7,2.7 -0.7,0.2 -1.4,0.4 -2.2,0.6 -4,1.1 -8.5,2.3 -13,0.2 -4.5,-2.1 -9.4,-5.2 -10.1,-5.7 -0.4,-0.2 -4,-2 -6.9,-0.1 -2.5,1.7 -5.2,3.2 -7.8,4.6 l -0.6,0.4 c -0.6,0.3 -1.3,0.7 -2,1 -2.3,1.1 -5.7,2.8 -6,4.5 -0.2,0.8 0.5,1.7 1.1,2.4 1.3,1.5 5.3,0.1 7.4,-0.7 l 0.3,-0.1 c 3.8,-1.4 7.2,-2.5 10.5,-3.4 0.6,-0.2 1.2,-0.1 1.8,0.2 0.5,0.3 0.9,0.8 1,1.4 1,4.5 6,7.3 6,7.4 0,0 0.1,0 0.1,0.1 l 15.2,9.6 7.7,-2.1 c 1.2,-0.3 2.4,0.4 2.8,1.6 0.3,1.2 -0.4,2.4 -1.6,2.8 l -8.6,2.4 c -0.2,0.1 -0.4,0.1 -0.6,0.1 z"
           id="path124"
           style="fill:#767676;fill-opacity:1" /></g></g><g
       id="g134"
       style="fill:#767676;fill-opacity:1"><g
         id="g132"
         style="fill:#767676;fill-opacity:1"><path
           d="m -219.9,422.9 c 0,0 0,0 0,0 -2.9,0 -7.2,-2 -7.2,-7.5 v -4.6 c 0,-0.3 0,-3.2 2.1,-5.3 0.9,-0.9 2.5,-1.9 5,-1.9 1.9,0 3.6,0.6 4.8,1.9 2.1,2.1 2.1,5 2.1,5.4 v 4.6 c 0,2.9 -1.1,4.6 -2.1,5.5 -1.7,1.8 -4.1,1.9 -4.7,1.9 z m 0,-14.8 c -1.2,0 -1.7,0.5 -1.8,0.6 -0.8,0.8 -0.8,2.1 -0.8,2.1 v 4.6 c 0,2.5 1.7,2.9 2.7,3 1.1,0 2.4,-0.5 2.4,-3 v -4.6 c -0.1,-1 -0.4,-2.7 -2.5,-2.7 z"
           id="path130"
           style="fill:#767676;fill-opacity:1" /></g></g><g
       id="g140"
       style="fill:#767676;fill-opacity:1"><g
         id="g138"
         style="fill:#767676;fill-opacity:1"><path
           d="m -229.4,416.8 c -0.1,0 -0.1,0 0,0 -2.9,0 -7.2,-2 -7.2,-7.5 v -1.7 c 0,-0.3 0,-3.2 2.1,-5.3 0.9,-0.9 2.5,-1.9 5,-1.9 1.9,0 3.6,0.6 4.8,1.9 2.1,2.1 2.1,5 2.1,5.4 v 1.7 c 0,2.9 -1.1,4.6 -2.1,5.5 -1.8,1.8 -4.2,1.9 -4.7,1.9 z m -0.1,-11.9 c -1.2,0 -1.7,0.5 -1.8,0.6 -0.8,0.8 -0.8,2.1 -0.8,2.1 v 1.7 c 0,2.7 2,3 2.6,3 1.1,0 2.4,-0.5 2.4,-3 v -1.7 c 0.1,-1 -0.3,-2.7 -2.4,-2.7 z"
           id="path136"
           style="fill:#767676;fill-opacity:1" /></g></g><g
       id="g146"
       style="fill:#767676;fill-opacity:1"><g
         id="g144"
         style="fill:#767676;fill-opacity:1"><path
           d="m -210.3,425.9 c 0,0 -0.1,0 0,0 -2.9,0 -7.2,-2 -7.2,-7.5 V 415 c 0,-0.3 0,-3.2 2.1,-5.3 0.9,-0.9 2.5,-1.9 5,-1.9 1.9,0 3.6,0.6 4.8,1.9 2.1,2.1 2.1,5 2.1,5.4 v 3.5 c 0,2.9 -1.1,4.6 -2.1,5.5 -1.7,1.7 -4.1,1.8 -4.7,1.8 z m 0,-13.7 c -1.2,0 -1.7,0.5 -1.8,0.6 -0.8,0.8 -0.8,2.1 -0.8,2.1 v 3.5 c 0,2.5 1.7,2.9 2.7,3 1.1,0 2.4,-0.5 2.4,-3 V 415 c -0.1,-1 -0.4,-2.8 -2.5,-2.8 z"
           id="path142"
           style="fill:#767676;fill-opacity:1" /></g></g><g
       id="g152"
       style="fill:#767676;fill-opacity:1"><g
         id="g150"
         style="fill:#767676;fill-opacity:1"><path
           d="m -225.9,379.2 c -0.2,0 -0.5,0 -0.7,-0.1 0,0 -4.6,-1.5 -7,-2.3 -1.2,-0.4 -1.8,-1.7 -1.4,-2.8 0.4,-1.2 1.7,-1.8 2.8,-1.4 1.8,0.6 5,1.7 6.4,2.1 l 15.7,-3.4 c 1.2,-0.3 2.4,0.5 2.7,1.7 0.3,1.2 -0.5,2.4 -1.7,2.7 l -16.3,3.5 c -0.1,0 -0.3,0 -0.5,0 z"
           id="path148"
           style="fill:#767676;fill-opacity:1" /></g></g><g
       id="g158"
       style="fill:#767676;fill-opacity:1"><g
         id="g156"
         style="fill:#767676;fill-opacity:1"><path
           d="m -234.4,406.3 c -0.4,0 -0.8,-0.1 -1.2,-0.4 l -9.3,-6 c -1,-0.7 -1.3,-2.1 -0.7,-3.1 0.6,-1 2.1,-1.3 3.1,-0.7 l 9.3,6 c 1,0.7 1.3,2.1 0.7,3.1 -0.4,0.7 -1.1,1.1 -1.9,1.1 z"
           id="path154"
           style="fill:#767676;fill-opacity:1" /></g></g></g></svg>
