<?xml version="1.0" encoding="UTF-8" standalone="no"?>
<svg
   width="86.178574mm"
   height="86.178574mm"
   viewBox="0 0 86.178574 86.178574"
   version="1.1"
   id="svg8"
   inkscape:version="1.1 (c68e22c387, 2021-05-23)"
   sodipodi:docname="favicon.svg"
   xmlns:inkscape="http://www.inkscape.org/namespaces/inkscape"
   xmlns:sodipodi="http://sodipodi.sourceforge.net/DTD/sodipodi-0.dtd"
   xmlns="http://www.w3.org/2000/svg"
   xmlns:svg="http://www.w3.org/2000/svg"
   xmlns:rdf="http://www.w3.org/1999/02/22-rdf-syntax-ns#"
   xmlns:cc="http://creativecommons.org/ns#"
   xmlns:dc="http://purl.org/dc/elements/1.1/">
  <defs
     id="defs2" />
  <sodipodi:namedview
     id="base"
     pagecolor="#353535"
     bordercolor="#666666"
     borderopacity="1.0"
     inkscape:pageopacity="0"
     inkscape:pageshadow="2"
     inkscape:zoom="1.4"
     inkscape:cx="169.64286"
     inkscape:cy="222.5"
     inkscape:document-units="mm"
     inkscape:current-layer="layer2"
     inkscape:document-rotation="0"
     showgrid="false"
     inkscape:pagecheckerboard="false"
     inkscape:window-width="1920"
     inkscape:window-height="1017"
     inkscape:window-x="1912"
     inkscape:window-y="-8"
     inkscape:window-maximized="1" />
  <metadata
     id="metadata5">
    <rdf:RDF>
      <cc:Work
         rdf:about="">
        <dc:format>image/svg+xml</dc:format>
        <dc:type
           rdf:resource="http://purl.org/dc/dcmitype/StillImage" />
        <dc:title />
      </cc:Work>
    </rdf:RDF>
  </metadata>
  <g
     inkscape:groupmode="layer"
     id="layer2"
     inkscape:label="Layer 1"
     transform="translate(-52.914604,-100.21466)"
     style="display:inline" />
  <g
     inkscape:groupmode="layer"
     id="layer1"
     inkscape:label="Layer 2"
     transform="translate(2.1754189,9.8544579)"
     style="display:inline">
    <path
       id="path2077"
       style="opacity:0.964516;fill:#e4142d;fill-opacity:0.96078432;stroke-width:0.203969;paint-order:markers stroke fill"
       d="m 38.712107,7.656254 c -1.069338,0.01581 -2.139704,0.116247 -3.175261,0.324566 -1.96033,0.394386 -3.94591,1.0802052 -5.702185,2.044053 -10.439192,5.729068 -17.384651,15.326553 -19.793377,26.99668 0.664272,-1.730405 1.295221,-3.431288 2.125194,-5.091237 1.941513,-3.882985 4.970474,-7.805907 9.114905,-9.484816 3.52729,-1.428865 7.462191,-0.150415 8.524242,3.78263 0.314446,1.163656 0.416631,12.211367 0.319395,15.47736 -0.18747,6.296799 1.837782,14.328295 8.262919,16.422423 11.298274,3.682593 22.460457,-8.228787 27.706669,-16.626072 1.959106,-3.135998 3.866259,-6.615759 4.905883,-10.182473 0.319537,-1.096044 0.785961,-3.665691 0.785961,-3.665691 -0.786093,3.665691 -4.193755,11.178063 -9.571525,15.038241 -3.255134,2.336466 -8.265049,3.271688 -10.507836,-0.986824 -0.848408,-1.610872 -1.149384,-10.116463 -1.200816,-11.912301 0,0 0.947602,-21.284907 -9.878193,-22.078467 -0.633174,-0.04642 -1.274373,-0.06756 -1.915975,-0.05807 z"
       sodipodi:nodetypes="sccccccscccccccss" />
  </g>
</svg>
