<?xml version="1.0" encoding="UTF-8" standalone="no"?>
<svg
   version="1.1"
   x="0px"
   y="0px"
   viewBox="-255 347 75.859145 61.179761"
   xml:space="preserve"
   id="svg166"
   sodipodi:docname="kits.svg"
   width="75.859146"
   height="61.17976"
   inkscape:version="1.1 (c68e22c387, 2021-05-23)"
   xmlns:inkscape="http://www.inkscape.org/namespaces/inkscape"
   xmlns:sodipodi="http://sodipodi.sourceforge.net/DTD/sodipodi-0.dtd"
   xmlns="http://www.w3.org/2000/svg"
   xmlns:svg="http://www.w3.org/2000/svg"><defs
     id="defs170" /><sodipodi:namedview
     id="namedview168"
     pagecolor="#505050"
     bordercolor="#ffffff"
     borderopacity="1"
     inkscape:pageshadow="0"
     inkscape:pageopacity="0"
     inkscape:pagecheckerboard="1"
     showgrid="false"
     inkscape:zoom="9.0509668"
     inkscape:cx="12.484854"
     inkscape:cy="29.665339"
     inkscape:window-width="2560"
     inkscape:window-height="1017"
     inkscape:window-x="-8"
     inkscape:window-y="-8"
     inkscape:window-maximized="1"
     inkscape:current-layer="svg166" /><style
     type="text/css"
     id="style2">
	.st0{enable-background:new    ;}
	.st1{fill:#FFFFFF;}
	.st2{fill:none;stroke:#FFFFFF;stroke-miterlimit:10;}
	.st3{fill:none;}
</style><path
     d="M -304.41948,430.53709"
     id="path104" /><path
     style="opacity:1;fill:#767676;stroke:#767676;stroke-width:2.208;stroke-miterlimit:4;stroke-dasharray:none;stroke-opacity:1;fill-opacity:1"
     d="m -219.51527,373.85898 v 9.0368 2.40981 c 0,0.26967 0.0816,0.71172 -0.0774,0.9466 -0.19692,0.29091 -0.8844,0.35304 -1.2028,0.45915 -0.90405,0.30107 -1.75524,0.69409 -2.56042,1.20701 -2.92966,1.86625 -4.88899,5.17838 -4.88899,8.68323 0,1.26809 0.26576,2.59326 0.74795,3.76534 3.18013,7.73015 14.07572,8.97075 19.32,2.71104 0.77859,-0.92944 1.38888,-2.01883 1.788,-3.16288 1.47948,-4.24128 -0.15723,-9.03371 -3.78829,-11.6403 -0.90624,-0.6505 -1.88817,-1.14715 -2.93697,-1.52195 -0.35085,-0.12539 -1.13585,-0.17931 -1.35341,-0.50064 -0.15904,-0.2348 -0.0774,-0.67693 -0.0774,-0.9466 v -2.40981 -9.0368 c 1.73536,-0.0757 3.58369,-0.96031 5.04554,-1.83748 0.41653,-0.24987 1.40033,-1.2312 1.88267,-1.02433 0.90436,0.38798 1.76248,1.27465 2.56043,1.85089 1.81368,1.30966 3.62022,2.63069 5.42208,3.95661 0.6761,0.49748 1.35499,0.99141 2.03328,1.48603 0.26169,0.19075 0.66804,0.38609 0.83372,0.67445 0.18962,0.32991 -0.26192,1.35724 -0.3251,1.74673 -0.17464,1.07673 -0.0755,2.27351 0.2464,3.3135 1.54989,5.00728 7.63158,7.15767 12.19772,4.87459 5.30031,-2.65019 6.03734,-9.93942 1.20491,-13.44765 -2.12169,-1.54025 -4.93048,-2.00949 -7.45536,-1.37533 -0.59063,0.14836 -1.18472,0.36313 -1.73205,0.62987 -0.25762,0.12553 -0.60984,0.43662 -0.90368,0.42683 -0.29219,-0.01 -0.60577,-0.32901 -0.82838,-0.49371 -0.64989,-0.48068 -1.31026,-0.9469 -1.95797,-1.4306 -1.84117,-1.3748 -3.70968,-2.71766 -5.57269,-4.06279 -0.79818,-0.57632 -2.08163,-1.20265 -2.67105,-1.99021 -0.24754,-0.33074 0.42736,-1.29896 0.55847,-1.65644 0.50132,-1.36704 0.95233,-3.04871 0.81948,-4.5184 -0.15919,-1.76263 -0.3928,-3.4138 -1.13999,-5.04554 -2.15911,-4.71557 -7.24374,-7.80696 -12.40232,-7.83183 -6.80268,-0.0328 -13.39533,4.66748 -14.06955,11.74777 -0.18051,1.89539 0.0774,3.77693 0.71707,5.5727 0.19565,0.5492 0.95451,1.4629 0.39709,1.91052 -2.43677,1.957 -5.08719,3.68152 -7.60333,5.5361 -0.70104,0.51675 -1.40839,1.02492 -2.10859,1.5428 -0.29279,0.21658 -0.69124,0.62685 -1.05429,0.7002 -0.31689,0.064 -0.70713,-0.27487 -0.97899,-0.4074 -0.6883,-0.33542 -1.43301,-0.5877 -2.18389,-0.73876 -3.25207,-0.65427 -6.73622,0.54717 -8.76161,3.20437 -3.00304,3.93989 -1.34929,9.5464 2.963,11.7025 4.56056,2.28028 10.64007,0.18247 12.19779,-4.84959 0.32186,-1.03999 0.42096,-2.23677 0.24633,-3.3135 -0.0633,-0.39001 -0.51766,-1.42766 -0.3251,-1.7572 0.17569,-0.30078 0.63122,-0.52948 0.90903,-0.72792 0.68152,-0.48678 1.35988,-0.98011 2.03327,-1.47819 1.77333,-1.31161 3.55847,-2.60938 5.34678,-3.90051 0.80232,-0.57933 1.65592,-1.45221 2.56043,-1.85164 0.48392,-0.21372 1.46207,0.77273 1.88266,1.02508 1.45688,0.87423 3.31681,1.76209 5.04555,1.83748 z"
     id="path1014" /></svg>
