<?xml version="1.0" encoding="UTF-8" standalone="no"?>
<svg
   width="23.012117"
   height="23.004854"
   viewBox="0 0 23.012117 23.004854"
   version="1.1"
   id="svg6"
   sodipodi:docname="ncr.svg"
   inkscape:version="1.1 (c68e22c387, 2021-05-23)"
   xmlns:inkscape="http://www.inkscape.org/namespaces/inkscape"
   xmlns:sodipodi="http://sodipodi.sourceforge.net/DTD/sodipodi-0.dtd"
   xmlns="http://www.w3.org/2000/svg"
   xmlns:svg="http://www.w3.org/2000/svg">
  <defs
     id="defs10" />
  <sodipodi:namedview
     id="namedview8"
     pagecolor="#505050"
     bordercolor="#ffffff"
     borderopacity="1"
     inkscape:pageshadow="0"
     inkscape:pageopacity="0"
     inkscape:pagecheckerboard="1"
     showgrid="false"
     inkscape:zoom="33.333333"
     inkscape:cx="11.505"
     inkscape:cy="11.535"
     inkscape:window-width="1920"
     inkscape:window-height="1017"
     inkscape:window-x="1912"
     inkscape:window-y="-8"
     inkscape:window-maximized="1"
     inkscape:current-layer="svg6" />
  <path
     d="m 2.8919845,7.504665 a 9.502,9.502 0 0 1 8.6199995,-5.5 9.502,9.502 0 0 1 9.215,7.182 0.75040522,0.75040522 0 1 0 1.456,-0.364 c -1.198,-4.779 -5.521,-8.31799998 -10.671,-8.31799998 A 10.995,10.995 0 0 0 2.0119845,5.956665 v -1.702 a 0.75,0.75 0 0 0 -1.50000002,0 v 3.75 a 1,1 0 0 0 1.00000002,1 h 3.75 a 0.75,0.75 0 0 0 0,-1.5 z m -0.595,6.318 a 0.75,0.75 0 0 0 -1.45500002,0.364 c 1.19700002,4.779 5.52000002,8.318 10.66999952,8.318 4.052,0 7.592,-2.191 9.5,-5.451 v 1.701 a 0.75,0.75 0 0 0 1.5,0 v -3.75 a 1,1 0 0 0 -1,-1 h -3.75 a 0.75,0.75 0 0 0 0,1.5 h 2.37 a 9.502,9.502 0 0 1 -8.62,5.5 c -4.4459995,0 -8.1809995,-3.055 -9.2149995,-7.182 z"
     id="path2"
     style="fill:#767676;fill-opacity:1" />
  <path
     d="m 11.511984,16.504665 a 1,1 0 1 0 0,-2 1,1 0 0 0 0,2 z m 0,-10 a 0.75,0.75 0 0 1 0.75,0.75 v 4.5 a 0.75,0.75 0 0 1 -1.5,0 v -4.5 a 0.75,0.75 0 0 1 0.75,-0.75 z"
     id="path4"
     style="fill:#767676;fill-opacity:1" />
  <g
     id="g4815"
     transform="translate(0.51198448,0.50466411)">
    <path
       style="opacity:0.964516;fill:#767676;fill-opacity:1;stroke:none;stroke-width:0.0300472;paint-order:markers stroke fill"
       d="M 10.927383,-0.50460937 C 7.9969462,-0.49844235 5.0952982,0.69112654 2.9970702,2.7355078 2.6429546,3.0797781 2.3027232,3.4401315 2.0011524,3.8317968 2.0310018,3.3618696 1.7810032,2.9007189 1.370625,2.669707 0.91922464,2.3646902 0.29388378,2.4636004 -0.08976563,2.8316016 -0.4056861,3.0724614 -0.50422081,3.4766844 -0.50097529,3.8553414 c -0.0263394,1.2953293 0.003137,2.591227 9.9481e-4,3.886768 0.11872158,0.6163713 0.64908232,1.161462 1.27792945,1.2479928 C 2.1196498,8.9841722 3.4622232,9.0254442 4.8033984,8.9838822 5.1755383,8.9878422 5.5337695,8.81373 5.7462892,8.5057572 6.1665937,7.9779088 6.0477055,7.1298889 5.4946291,6.7409182 5.0890036,6.4261369 4.5440058,6.5320663 4.0674609,6.5052739 3.7841604,6.5048689 3.500856,6.5054473 3.2175585,6.5039065 4.4533962,4.3283973 6.6472804,2.7340832 9.0940432,2.2170703 10.013893,2.0051174 10.957982,1.9834973 11.870809,2.0552139 c 1.63468,0.1438707 3.244256,0.788191 4.5505,1.7741805 1.452214,1.0869411 2.580796,2.6577136 3.12914,4.4034964 0.15503,0.4648776 0.241875,1.0216233 0.694981,1.3021875 0.548607,0.3977232 1.386804,0.221403 1.743867,-0.3491601 C 22.252119,8.8215655 22.227551,8.3464483 22.093478,7.9385224 21.547222,5.95108 20.452063,4.1224707 18.958333,2.7022543 17.999992,1.7617822 16.862204,1.0158844 15.635098,0.47472657 14.16603,-0.19251059 12.537945,-0.50945617 10.927383,-0.50460937 Z"
       id="path4557" />
    <path
       style="opacity:0.964516;fill:#767676;fill-opacity:1;stroke:none;stroke-width:0.0300472;paint-order:markers stroke fill"
       d="m 10.958379,5.4978516 c -0.554778,0.00513 -1.0671002,0.4481489 -1.1784375,0.9847852 -0.059427,1.403139 -0.03469,2.8090965 -0.027434,4.2132972 0.028297,0.437367 -0.071132,0.939112 0.2456961,1.298383 0.3172174,0.425862 0.9073214,0.637439 1.4105274,0.430898 0.471459,-0.146248 0.829622,-0.599498 0.815478,-1.100381 0.04404,-1.517788 0.0099,-3.0370326 0.02077,-4.5553808 0.05205,-0.6888501 -0.606962,-1.3069268 -1.286602,-1.2716016 z"
       id="path4596" />
    <path
       style="opacity:0.964516;fill:#767676;fill-opacity:1;stroke:none;stroke-width:0.0300472;paint-order:markers stroke fill"
       d="m 10.91584,13.510664 c -0.641017,-5.79e-4 -1.2303612,0.516828 -1.3751368,1.129395 -0.051503,0.429534 -0.046554,0.909859 0.2546485,1.254609 0.3641013,0.507037 1.0562173,0.742721 1.6487693,0.531738 0.755504,-0.208371 1.230581,-1.074872 1.003242,-1.82414 -0.170364,-0.64732 -0.810478,-1.140377 -1.486639,-1.091988 l -0.03,2.58e-4 z"
       id="path4635" />
    <path
       style="opacity:0.964516;fill:#767676;fill-opacity:1;stroke:none;stroke-width:0.0300472;paint-order:markers stroke fill"
       d="m 1.0091602,12.266016 c -0.69725039,-0.0028 -1.30024735,0.690765 -1.18136722,1.382578 0.12540621,0.764937 0.41978889,1.492803 0.73552735,2.19709 1.40862517,3.038713 4.19545037,5.412267 7.44169437,6.261757 1.1002962,0.290951 2.2425713,0.446902 3.3815293,0.375594 1.938895,-0.03605 3.85624,-0.620919 5.519921,-1.609363 1.188258,-0.710621 2.242844,-1.640978 3.103067,-2.72543 -0.0133,0.386916 0.09922,0.79456 0.416191,1.041328 0.494857,0.465454 1.343824,0.385606 1.77668,-0.123808 0.262362,-0.268528 0.306486,-0.654113 0.291655,-1.011495 0.0055,-1.258021 0.01741,-2.517077 -0.02189,-3.774501 -0.05915,-0.739431 -0.785739,-1.300521 -1.508672,-1.282676 -1.214018,-0.01638 -2.429058,-0.02388 -3.642906,0.0042 -0.372988,-0.0019 -0.763866,0.109511 -0.998187,0.4191 -0.354006,0.377471 -0.452799,0.980891 -0.166875,1.426641 0.211358,0.38643 0.620732,0.652919 1.066406,0.649687 0.518564,0.02915 1.038375,0.01411 1.55748,0.01828 -1.240616,2.125202 -3.374424,3.722854 -5.784993,4.250225 -0.972066,0.227145 -1.982544,0.259868 -2.974069,0.173193 C 8.1081043,19.724263 6.2691586,18.893465 4.8664374,17.572624 3.6176529,16.41394 2.7229131,14.888493 2.2875984,13.243587 2.1565841,12.659047 1.6088646,12.236916 1.0091602,12.266016 Z"
       id="path4674" />
  </g>
</svg>
