<?xml version="1.0" encoding="UTF-8" standalone="no"?>
<svg
   enable-background="new 0 0 24 24"
   height="20"
   viewBox="0 0 20 20"
   width="20"
   version="1.1"
   id="svg6"
   sodipodi:docname="QrScannerS.svg"
   inkscape:version="1.1 (c68e22c387, 2021-05-23)"
   xmlns:inkscape="http://www.inkscape.org/namespaces/inkscape"
   xmlns:sodipodi="http://sodipodi.sourceforge.net/DTD/sodipodi-0.dtd"
   xmlns="http://www.w3.org/2000/svg"
   xmlns:svg="http://www.w3.org/2000/svg">
  <defs
     id="defs10" />
  <sodipodi:namedview
     id="namedview8"
     pagecolor="#505050"
     bordercolor="#ffffff"
     borderopacity="1"
     inkscape:pageshadow="0"
     inkscape:pageopacity="0"
     inkscape:pagecheckerboard="1"
     showgrid="false"
     inkscape:zoom="33.333333"
     inkscape:cx="11.925"
     inkscape:cy="12.615"
     inkscape:window-width="1920"
     inkscape:window-height="1017"
     inkscape:window-x="-8"
     inkscape:window-y="-8"
     inkscape:window-maximized="1"
     inkscape:current-layer="svg6" />
  <rect
     fill="none"
     height="24"
     width="24"
     id="rect2"
     x="-2"
     y="-2" />
  <path
     d="m 7.5,4.5 v 3 h -3 v -3 h 3 M 9,3 H 3 v 6 h 6 z m -1.5,9.5 v 3 h -3 v -3 h 3 M 9,11 H 3 v 6 h 6 z m 6.5,-6.5 v 3 h -3 v -3 h 3 M 17,3 h -6 v 6 h 6 z m -6,8 h 1.5 v 1.5 H 11 Z m 1.5,1.5 H 14 V 14 H 12.5 Z M 14,11 h 1.5 v 1.5 H 14 Z m -3,3 h 1.5 v 1.5 H 11 Z m 1.5,1.5 H 14 V 17 H 12.5 Z M 14,14 h 1.5 v 1.5 H 14 Z m 1.5,-1.5 H 17 V 14 h -1.5 z m 0,3 H 17 V 17 H 15.5 Z M 20,5 H 18 V 2 H 15 V 0 h 5 z m 0,15 v -5 h -2 v 3 h -3 v 2 z M 0,20 H 5 V 18 H 2 V 15 H 0 Z M 0,0 V 5 H 2 V 2 H 5 V 0 Z"
     id="path4"
     style="fill:#ffffff;fill-opacity:1" />
</svg>
