<?xml version="1.0" encoding="UTF-8" standalone="no"?>
<svg
   width="4.6792603mm"
   height="4.3601527mm"
   viewBox="0 0 4.6792603 4.3601527"
   version="1.1"
   id="svg8"
   inkscape:version="1.1 (c68e22c387, 2021-05-23)"
   sodipodi:docname="supplier.svg"
   xmlns:inkscape="http://www.inkscape.org/namespaces/inkscape"
   xmlns:sodipodi="http://sodipodi.sourceforge.net/DTD/sodipodi-0.dtd"
   xmlns="http://www.w3.org/2000/svg"
   xmlns:svg="http://www.w3.org/2000/svg"
   xmlns:rdf="http://www.w3.org/1999/02/22-rdf-syntax-ns#"
   xmlns:cc="http://creativecommons.org/ns#"
   xmlns:dc="http://purl.org/dc/elements/1.1/">
  <defs
     id="defs2" />
  <sodipodi:namedview
     id="base"
     pagecolor="#353535"
     bordercolor="#666666"
     borderopacity="1.0"
     inkscape:pageopacity="0"
     inkscape:pageshadow="2"
     inkscape:zoom="15.839192"
     inkscape:cx="-11.458918"
     inkscape:cy="2.1781414"
     inkscape:document-units="mm"
     inkscape:current-layer="g1684"
     inkscape:document-rotation="0"
     showgrid="false"
     inkscape:pagecheckerboard="false"
     inkscape:window-width="1920"
     inkscape:window-height="1017"
     inkscape:window-x="-8"
     inkscape:window-y="-8"
     inkscape:window-maximized="1" />
  <metadata
     id="metadata5">
    <rdf:RDF>
      <cc:Work
         rdf:about="">
        <dc:format>image/svg+xml</dc:format>
        <dc:type
           rdf:resource="http://purl.org/dc/dcmitype/StillImage" />
      </cc:Work>
    </rdf:RDF>
  </metadata>
  <g
     inkscape:groupmode="layer"
     id="layer2"
     inkscape:label="Layer 1"
     transform="translate(-122.09628,-118.33628)">
    <g
       id="g1684"
       transform="matrix(0.31308402,0,0,0.31308402,87.822018,88.458472)"
       style="display:inline">
      <path
         d="m 123.90552,96.601543 c 0.0817,-0.0161 0.16668,-5.3e-4 0.23706,0.0426 0.12039,0.0497 0.20532,0.16801 0.20585,0.30639 l 0.0699,9.679507 c 0.006,0.11879 -0.0524,0.2368 -0.16166,0.30189 l -3.95314,2.35796 c -0.0558,0.0423 -0.12568,0.0672 -0.20082,0.0672 -0.0183,0 -0.0365,-0.001 -0.054,-0.004 l -10.25868,-1.14061 c -0.17648,-0.009 -0.31698,-0.15505 -0.31698,-0.33391 v -9.843027 h 5.3e-4 c -0.004,-0.13176 0.0709,-0.25903 0.19897,-0.31512 l 5.14615,-2.262179 2.6e-4,5.29e-4 c 0.0537,-0.02381 0.11456,-0.03334 0.17701,-0.0254 z m -3.34937,2.8276 v 8.767227 l 3.07605,-1.73831 -0.0646,-8.838667 z m -1.02684,8.863267 v -8.770137 l -4.13544,-0.43841 -0.1434,4.180937 -1.53618,-1.04616 -1.53617,0.8681 0.31697,-4.373037 -2.11507,-0.3003 v 8.928097 z m -0.45244,-11.652767 -3.107,1.71211 4.19708,0.53552 2.82205,-1.7346 z m -6.05129,1.33641 3.00911,-1.7354 -1.03161,-0.13521 -3.8608,1.6301 z"
         id="path2-0"
         sodipodi:nodetypes="ccccccsccsccccccccsccccccccccccccccccccccc"
         style="font-variation-settings:normal;display:inline;vector-effect:none;fill:#767676;fill-opacity:1;stroke-width:0.0136496;stroke-linecap:butt;stroke-linejoin:miter;stroke-miterlimit:4;stroke-dasharray:none;stroke-dashoffset:0;stroke-opacity:1;-inkscape-stroke:none;stop-color:#000000" />
    </g>
  </g>
</svg>
