<?xml version="1.0" encoding="UTF-8" standalone="no"?>
<!-- Generator: Adobe Illustrator 16.0.0, SVG Export Plug-In . SVG Version: 6.00 Build 0)  -->

<svg
   version="1.1"
   id="Capa_1"
   x="0px"
   y="0px"
   width="542.18298"
   height="432.54501"
   viewBox="0 0 542.183 432.54503"
   xml:space="preserve"
   sodipodi:docname="tagsS.svg"
   inkscape:version="1.1 (c68e22c387, 2021-05-23)"
   xmlns:inkscape="http://www.inkscape.org/namespaces/inkscape"
   xmlns:sodipodi="http://sodipodi.sourceforge.net/DTD/sodipodi-0.dtd"
   xmlns="http://www.w3.org/2000/svg"
   xmlns:svg="http://www.w3.org/2000/svg"><defs
   id="defs43" /><sodipodi:namedview
   id="namedview41"
   pagecolor="#505050"
   bordercolor="#ffffff"
   borderopacity="1"
   inkscape:pageshadow="0"
   inkscape:pageopacity="0"
   inkscape:pagecheckerboard="1"
   showgrid="false"
   inkscape:zoom="1.4755166"
   inkscape:cx="270.75263"
   inkscape:cy="216.53433"
   inkscape:window-width="1920"
   inkscape:window-height="1017"
   inkscape:window-x="1912"
   inkscape:window-y="-8"
   inkscape:window-maximized="1"
   inkscape:current-layer="Capa_1" />
<g
   id="g8"
   transform="matrix(-1,0,0,1,542.183,-54.819)"
   style="fill:#ffffff;fill-opacity:1">
	<g
   id="g6"
   style="fill:#ffffff;fill-opacity:1">
		<path
   d="m 432.544,310.636 c 0,-9.897 -3.521,-18.559 -10.564,-25.984 L 217.844,80.8 C 210.612,73.562 200.905,67.426 188.723,62.384 176.542,57.341 165.404,54.819 155.316,54.819 H 36.545 c -9.896,0 -18.464,3.619 -25.694,10.848 C 3.616,72.9 0,81.466 0,91.365 v 118.771 c 0,10.088 2.519,21.219 7.564,33.404 5.046,12.185 11.187,21.792 18.417,28.837 L 230.12,476.799 c 7.043,7.043 15.608,10.564 25.694,10.564 9.898,0 18.562,-3.521 25.984,-10.564 l 140.186,-140.47 c 7.039,-7.045 10.56,-15.604 10.56,-25.693 z M 117.204,172.02 c -7.139,7.138 -15.752,10.709 -25.841,10.709 -10.085,0 -18.698,-3.571 -25.837,-10.709 -7.139,-7.139 -10.705,-15.749 -10.705,-25.837 0,-10.089 3.566,-18.702 10.705,-25.837 7.139,-7.139 15.752,-10.71 25.837,-10.71 10.089,0 18.702,3.571 25.841,10.71 7.135,7.135 10.707,15.749 10.707,25.837 -0.001,10.088 -3.572,18.698 -10.707,25.837 z"
   id="path2"
   style="fill:#ffffff;fill-opacity:1" />
		<path
   d="M 531.612,284.655 327.473,80.804 C 320.243,73.566 310.534,67.43 298.351,62.387 286.174,57.345 275.038,54.823 264.949,54.823 h -63.953 c 10.088,0 21.222,2.522 33.402,7.564 12.185,5.046 21.892,11.182 29.125,18.417 L 467.66,284.655 c 7.046,7.423 10.571,16.084 10.571,25.981 0,10.089 -3.525,18.647 -10.571,25.693 l -134.191,134.19 c 5.718,5.9 10.759,10.182 15.133,12.847 4.38,2.666 9.996,3.998 16.844,3.998 9.903,0 18.565,-3.521 25.98,-10.564 L 531.612,336.33 c 7.046,-7.046 10.571,-15.604 10.571,-25.693 -0.004,-9.898 -3.525,-18.559 -10.571,-25.982 z"
   id="path4"
   style="fill:#ffffff;fill-opacity:1" />
	</g>
</g>
<g
   id="g10"
   transform="translate(0,-54.819)">
</g>
<g
   id="g12"
   transform="translate(0,-54.819)">
</g>
<g
   id="g14"
   transform="translate(0,-54.819)">
</g>
<g
   id="g16"
   transform="translate(0,-54.819)">
</g>
<g
   id="g18"
   transform="translate(0,-54.819)">
</g>
<g
   id="g20"
   transform="translate(0,-54.819)">
</g>
<g
   id="g22"
   transform="translate(0,-54.819)">
</g>
<g
   id="g24"
   transform="translate(0,-54.819)">
</g>
<g
   id="g26"
   transform="translate(0,-54.819)">
</g>
<g
   id="g28"
   transform="translate(0,-54.819)">
</g>
<g
   id="g30"
   transform="translate(0,-54.819)">
</g>
<g
   id="g32"
   transform="translate(0,-54.819)">
</g>
<g
   id="g34"
   transform="translate(0,-54.819)">
</g>
<g
   id="g36"
   transform="translate(0,-54.819)">
</g>
<g
   id="g38"
   transform="translate(0,-54.819)">
</g>
</svg>
