<?xml version="1.0" encoding="UTF-8" standalone="no"?>
<svg
   width="33.305828mm"
   height="33.570866mm"
   viewBox="0 0 33.305828 33.570866"
   version="1.1"
   id="svg8"
   inkscape:version="1.1 (c68e22c387, 2021-05-23)"
   sodipodi:docname="ticketS.svg"
   xmlns:inkscape="http://www.inkscape.org/namespaces/inkscape"
   xmlns:sodipodi="http://sodipodi.sourceforge.net/DTD/sodipodi-0.dtd"
   xmlns="http://www.w3.org/2000/svg"
   xmlns:svg="http://www.w3.org/2000/svg"
   xmlns:rdf="http://www.w3.org/1999/02/22-rdf-syntax-ns#"
   xmlns:cc="http://creativecommons.org/ns#"
   xmlns:dc="http://purl.org/dc/elements/1.1/">
  <defs
     id="defs2" />
  <sodipodi:namedview
     id="base"
     pagecolor="#353535"
     bordercolor="#666666"
     borderopacity="1.0"
     inkscape:pageopacity="0"
     inkscape:pageshadow="2"
     inkscape:zoom="2.8"
     inkscape:cx="2.3214286"
     inkscape:cy="90.535714"
     inkscape:document-units="mm"
     inkscape:current-layer="layer2"
     inkscape:document-rotation="0"
     showgrid="false"
     inkscape:pagecheckerboard="false"
     inkscape:window-width="1920"
     inkscape:window-height="1017"
     inkscape:window-x="1912"
     inkscape:window-y="-8"
     inkscape:window-maximized="1" />
  <metadata
     id="metadata5">
    <rdf:RDF>
      <cc:Work
         rdf:about="">
        <dc:format>image/svg+xml</dc:format>
        <dc:type
           rdf:resource="http://purl.org/dc/dcmitype/StillImage" />
      </cc:Work>
    </rdf:RDF>
  </metadata>
  <g
     inkscape:groupmode="layer"
     id="layer2"
     inkscape:label="Layer 1"
     transform="translate(-67.733337,-92.679764)">
    <path
       style="fill:#ffffff;stroke-width:0.264583;fill-opacity:1"
       d="m 77.224501,124.99341 c -1.317411,-1.25677 -1.317411,-1.25677 -0.906371,-2.24046 0.561559,-1.34391 0.515757,-2.46211 -0.149317,-3.64545 -1.040308,-1.85098 -3.171669,-2.5554 -5.185701,-1.71388 -0.966562,0.40385 -0.966562,0.40385 -2.108168,-0.71655 -0.753833,-0.73983 -1.141607,-1.34936 -1.141607,-1.79447 0,-0.53192 1.775523,-2.44894 8.419659,-9.09064 7.326531,-7.323854 8.464318,-8.362764 8.763646,-8.002094 0.189194,0.22796 0.51174,0.41448 0.71677,0.41448 0.576407,0 0.732582,-0.76081 0.262744,-1.27998 -0.393415,-0.43472 -0.291484,-0.59635 1.495488,-2.37139 2.323672,-2.30817 2.776808,-2.3873 4.370667,-0.76328 1.1204,1.14161 1.1204,1.14161 0.71655,2.10817 -0.84152,2.01403 -0.1371,4.145394 1.71388,5.185704 1.179,0.66264 2.30112,0.71104 3.62832,0.1565 0.96656,-0.40385 0.96656,-0.40385 2.10817,0.71655 1.624029,1.59386 1.544889,2.047 -0.76328,4.37067 -1.80326,1.81538 -1.93072,1.89428 -2.38948,1.47911 -0.45058,-0.40777 -0.5153,-0.40787 -0.92171,-10e-4 -0.40641,0.40641 -0.40634,0.47108 8e-4,0.92111 0.41599,0.45967 0.009,0.91249 -8.096901,9.00407 -4.694077,4.68602 -8.688231,8.52005 -8.87577,8.52005 -0.187538,0 -0.933813,-0.56555 -1.658389,-1.25677 z m 17.63608,-19.10791 c -0.58909,-0.65094 -1.15551,-0.69162 -1.38279,-0.0993 -0.10813,0.28176 0.0523,0.61659 0.44962,0.9383 0.55184,0.44685 0.66049,0.45745 1.01862,0.0993 0.35813,-0.35813 0.34902,-0.45821 -0.0854,-0.93829 z m -1.99183,-1.55473 c 0,-0.60205 -0.92248,-1.47911 -1.30624,-1.24194 -0.37703,0.23302 -0.35685,1.01951 0.0363,1.4126 0.4914,0.49141 1.27,0.38678 1.27,-0.17066 z m -2.208564,-2.03524 c 0.172154,-0.44862 -0.594296,-1.44535 -1.111425,-1.44535 -0.554737,0 -0.688825,0.8401 -0.217256,1.36118 0.540114,0.59682 1.117915,0.63342 1.328681,0.0842 z m -2.146755,-2.25577 c 0.211798,-0.342704 -0.612854,-1.306254 -1.117948,-1.306254 -0.51953,0 -0.730198,0.72958 -0.344768,1.194004 0.379126,0.45682 1.210338,0.5206 1.462716,0.11225 z"
       id="path1016" />
  </g>
</svg>
