<?xml version="1.0" encoding="utf-8"?>
<!-- Generator: Adobe Illustrator 27.2.0, SVG Export Plug-In . SVG Version: 6.00 Build 0)  -->
<svg version="1.1" id="Capa_1" xmlns="http://www.w3.org/2000/svg" xmlns:xlink="http://www.w3.org/1999/xlink" x="0px" y="0px"
	 viewBox="0 0 16.7 9.2" style="enable-background:new 0 0 16.7 9.2;" xml:space="preserve">
<style type="text/css">
	.st0{fill:#FFFFFF;}
</style>
<path class="st0" d="M16.3,0.6c-0.3-0.4-0.7-0.6-1.2-0.6C14.7,0,14.3,0.1,14,0.4L8.4,5.2L2.9,0.5C2.2-0.2,1.1-0.1,0.5,0.5
	C0.1,0.9,0,1.3,0,1.8C0,2.2,0.2,2.7,0.6,3l6.6,5.7C7.5,9,8,9.2,8.4,9.2c0.1,0,0.1,0,0.2,0c0.4,0,0.7-0.2,1-0.4L16.1,3
	C16.8,2.5,16.9,1.4,16.3,0.6z"/>
</svg>
