<?xml version="1.0" encoding="utf-8"?>
<!-- Generator: Adobe Illustrator 27.2.0, SVG Export Plug-In . SVG Version: 6.00 Build 0)  -->
<svg version="1.1" id="Capa_1" xmlns="http://www.w3.org/2000/svg" xmlns:xlink="http://www.w3.org/1999/xlink" x="0px" y="0px"
	 viewBox="0 0 9.2 16.7" style="enable-background:new 0 0 9.2 16.7;" xml:space="preserve">
<style type="text/css">
	.st0{fill:#0A467A;}
</style>
<path class="st0" d="M0.6,0.4C0.2,0.7,0,1.1,0,1.6C0,2,0.1,2.4,0.4,2.7l4.8,5.6l-4.7,5.5c-0.7,0.7-0.6,1.8,0,2.4
	c0.4,0.4,0.8,0.5,1.3,0.5c0.4,0,0.9-0.2,1.2-0.6l5.7-6.6C9,9.2,9.2,8.7,9.2,8.3c0-0.1,0-0.1,0-0.2c0-0.4-0.2-0.7-0.4-1L3,0.6
	C2.5-0.1,1.4-0.2,0.6,0.4z"/>
</svg>
