<?xml version="1.0" encoding="utf-8"?>
<!-- Generator: Adobe Illustrator 27.1.1, SVG Export Plug-In . SVG Version: 6.00 Build 0)  -->
<svg version="1.1" id="Capa_1" xmlns="http://www.w3.org/2000/svg" xmlns:xlink="http://www.w3.org/1999/xlink" x="0px" y="0px"
	 viewBox="0 0 22.3 19" style="enable-background:new 0 0 22.3 19;" xml:space="preserve">
<style type="text/css">
	.st0{fill:#AAA9A9;}
</style>
<path class="st0" d="M21.7,16.1l-4.5-3.4C17.7,11.6,18,10.3,18,9c0-5-4-9-9-9S0,4,0,9c0,5,4,9,9,9c2.6,0,4.9-1.1,6.5-2.8l4.4,3.3
	c0.3,0.2,0.6,0.3,0.9,0.3c0.5,0,0.9-0.2,1.2-0.6C22.5,17.6,22.4,16.6,21.7,16.1z M9,15c-3.3,0-6-2.7-6-6s2.7-6,6-6s6,2.7,6,6
	S12.3,15,9,15z"/>
</svg>
