<?xml version="1.0" encoding="utf-8"?>
<!-- Generator: Adobe Illustrator 27.2.0, SVG Export Plug-In . SVG Version: 6.00 Build 0)  -->
<svg version="1.1" id="Capa_1" xmlns="http://www.w3.org/2000/svg" xmlns:xlink="http://www.w3.org/1999/xlink" x="0px" y="0px"
	 viewBox="0 0 28.4 28.2" style="enable-background:new 0 0 28.4 28.2;" xml:space="preserve">
<style type="text/css">
	.st0{fill-rule:evenodd;clip-rule:evenodd;fill:#FFFFFF;}
</style>
<path class="st0" d="M21.1,1.4c-0.3-0.3-0.6-0.4-1-0.4h0c0,0,0,0,0,0c-0.4,0-0.7,0.2-1,0.4L2,18.5c-0.2,0.2-0.4,0.6-0.4,0.9L1,25.7
	c0,0.1,0,0.2,0,0.3c0,0.4,0.2,0.7,0.5,1s0.7,0.4,1.1,0.3l6.3-0.6c0.3,0,0.7-0.2,0.9-0.4L26.8,9.2c0.6-0.6,0.6-1.5,0-2L21.1,1.4z
	 M8.1,23.8l-4,0.4l0.4-4L15,9.6l3.6,3.7L8.1,23.8z M20.7,11.2L17,7.6l3.1-3.1l3.6,3.6L20.7,11.2z"/>
</svg>
