<svg xmlns="http://www.w3.org/2000/svg" width="16.932" height="18.828" viewBox="0 0 16.932 18.828">
  <path id="noun-delete-5281269" d="M137.668,20.028h-3.792V19.4a1.9,1.9,0,0,0-1.9-1.9h-2.528a1.9,1.9,0,0,0-1.9,1.9v.632h-3.792a1.265,1.265,0,0,0-1.264,1.264v1.264a1.265,1.265,0,0,0,1.264,1.264h.632V33.932a1.9,1.9,0,0,0,1.9,1.9h8.848a1.9,1.9,0,0,0,1.9-1.9V23.82h.632a1.265,1.265,0,0,0,1.264-1.264V21.292A1.265,1.265,0,0,0,137.668,20.028ZM128.82,19.4a.633.633,0,0,1,.632-.632h2.528a.633.633,0,0,1,.632.632v.632H128.82Zm6.952,14.536a.633.633,0,0,1-.632.632h-8.848a.633.633,0,0,1-.632-.632V23.82h10.112Zm1.264-11.376H123.764V21.292h13.9v1.264Zm-8.848,9.48V26.348a.632.632,0,0,1,1.264,0v5.688a.632.632,0,0,1-1.264,0Zm3.792,0V26.348a.632.632,0,1,1,1.264,0v5.688a.632.632,0,1,1-1.264,0Z" transform="translate(-122.25 -17.25)" fill="#ff2f30" stroke="#ff2f30" stroke-width="0.5"/>
</svg>
