<?xml version="1.0" encoding="utf-8"?>
<!-- Generator: Adobe Illustrator 27.2.0, SVG Export Plug-In . SVG Version: 6.00 Build 0)  -->
<svg version="1.1" id="Capa_1" xmlns="http://www.w3.org/2000/svg" xmlns:xlink="http://www.w3.org/1999/xlink" x="0px" y="0px"
	 viewBox="0 0 27.2 32.3" style="enable-background:new 0 0 27.2 32.3;" xml:space="preserve">
<style type="text/css">
	.st0{fill:#0A467A;}
</style>
<path class="st0" d="M26,1.7L26,1.7l-3.5,0V1.2c0-0.6-0.5-1.2-1.2-1.2h-9.2C11.6,0,11,0.5,11,1.2v0.6H7.6c-0.6,0-1.2,0.5-1.2,1.2
	v11.2c-1.5,0.5-2.8,1.3-3.9,2.5v-1.8H0v6.3h6.3v-2.5H4.2c1-1.2,2.3-1.9,3.9-2.2c1.8-0.3,3.6,0,5.1,1.1c1.5,1,2.5,2.6,2.8,4.3
	s0,3.6-1.1,5.1c-1,1.5-2.6,2.5-4.3,2.8c-1.8,0.3-3.6,0-5.1-1.1l-0.2-0.1c-1.8-1.2-2.8-3.2-2.8-5.3l0-0.4H0l0,0.4
	c0,2.4,1,4.7,2.7,6.3c1.8,1.8,4.2,2.7,6.6,2.7c2.4,0,4.8-0.9,6.6-2.7c0.6-0.6,1-1.2,1.4-1.9H26c0.6,0,1.2-0.5,1.2-1.2V2.9
	C27.2,2.2,26.7,1.7,26,1.7z M20.3,2.3v1.2h-6.9l0-1.2H20.3z M24.9,25.4h-6.6c0.8-3.1,0-6.6-2.4-9c-1.8-1.8-4.1-2.7-6.6-2.7h0
	c-0.2,0-0.4,0-0.6,0V4H11v0.6c0,0.6,0.5,1.2,1.2,1.2h9.2c0.6,0,1.2-0.5,1.2-1.2V4h2.3L24.9,25.4z"/>
</svg>
