<?xml version="1.0" encoding="utf-8"?>
<!-- Generator: Adobe Illustrator 27.2.0, SVG Export Plug-In . SVG Version: 6.00 Build 0)  -->
<svg version="1.1" id="Capa_1" xmlns="http://www.w3.org/2000/svg" xmlns:xlink="http://www.w3.org/1999/xlink" x="0px" y="0px"
	 viewBox="0 0 24 24" style="enable-background:new 0 0 24 24;" xml:space="preserve">
<style type="text/css">
	.st0{fill:#0A467A;}
</style>
<g>
	<g>
		<path class="st0" d="M12,24C5.4,24,0,18.6,0,12C0,5.4,5.4,0,12,0c6.6,0,12,5.4,12,12C24,18.6,18.6,24,12,24z M12,2.4
			c-5.3,0-9.6,4.3-9.6,9.6c0,5.3,4.3,9.6,9.6,9.6c5.3,0,9.6-4.3,9.6-9.6C21.6,6.7,17.3,2.4,12,2.4z"/>
	</g>
	<path class="st0" d="M14.9,12.4l-1.7-0.7V7.5c0-0.7-0.5-1.2-1.2-1.2s-1.2,0.5-1.2,1.2v5c0,0,0,0,0,0c0,0.9,0.5,1,0.7,1.1
		c0.1,0.1,2.5,1,2.5,1c0.1,0.1,0.3,0.1,0.4,0.1c0.5,0,0.9-0.3,1.1-0.8C15.9,13.3,15.6,12.6,14.9,12.4z"/>
</g>
</svg>
