<svg id="Grupo_1233" data-name="Grupo 1233" xmlns="http://www.w3.org/2000/svg" xmlns:xlink="http://www.w3.org/1999/xlink" width="57.187" height="46.667" viewBox="0 0 57.187 46.667">
  <defs>
    <clipPath id="clip-path">
      <rect id="Rectángulo_2602" data-name="Rectángulo 2602" width="57.186" height="46.667" fill="none"/>
    </clipPath>
  </defs>
  <g id="Grupo_1206" data-name="Grupo 1206" clip-path="url(#clip-path)">
    <path id="Trazado_720" data-name="Trazado 720" d="M24.044,0A14.477,14.477,0,0,0,9.727,15.089,11.186,11.186,0,0,0,0,25.994a11.366,11.366,0,0,0,11.047,11.7h7.8a1.3,1.3,0,1,0,0-2.6h-7.8c-4.4,0-8.448-3.683-8.448-9.1a8.672,8.672,0,0,1,8.448-8.448,1.3,1.3,0,0,0,1.279-1.482A11.958,11.958,0,0,1,24.044,2.6a11.673,11.673,0,0,1,7.026,2.254,1.3,1.3,0,1,0,1.543-2.092A14.342,14.342,0,0,0,24.044,0ZM39.316,6.275a9.648,9.648,0,0,0-4.163,1,1.308,1.308,0,0,0,1.178,2.335,7.174,7.174,0,0,1,6.864.264c2.058,1.235,3.595,3.524,3.595,7.026a1.3,1.3,0,0,0,1.076,1.279c3.9.656,6.722,4.552,6.722,8.468,0,4.7-3.708,8.448-9.748,8.448h-6.5a1.3,1.3,0,1,0,0,2.6h6.5c7.177,0,12.347-4.924,12.347-11.047a11.181,11.181,0,0,0-7.92-10.783,10.284,10.284,0,0,0-4.731-8.2,9.78,9.78,0,0,0-4.61-1.381c-.2-.009-.406,0-.609,0ZM28.441,22.18a1.385,1.385,0,0,0-.824.39l-5.554,5.554A1.389,1.389,0,1,0,24.015,30.1l3.19-3.19V45.259a1.389,1.389,0,1,0,2.777,0V26.91l3.19,3.19a1.389,1.389,0,1,0,1.953-1.974L29.57,22.571a1.388,1.388,0,0,0-1.128-.39Z"/>
  </g>
</svg>
