<svg xmlns="http://www.w3.org/2000/svg" width="21.473" height="23.733" viewBox="0 0 21.473 23.733">
  <g id="noun-note-5208185" transform="translate(-128.33 -46.67)">
    <path id="Trazado_566" data-name="Trazado 566" d="M128.33,94.464a1.13,1.13,0,0,1,1.13-1.13h19.212a1.13,1.13,0,0,1,1.13,1.13v19.212a1.13,1.13,0,0,1-1.13,1.13H129.46a1.13,1.13,0,0,1-1.13-1.13Zm2.26,1.13v16.952h16.952V95.594Z" transform="translate(0 -44.404)" fill="#969696" fill-rule="evenodd"/>
    <path id="Trazado_567" data-name="Trazado 567" d="M233.33,50.06V46.67h2.26v3.39Z" transform="translate(-99.914)" fill="#969696" fill-rule="evenodd"/>
    <path id="Trazado_568" data-name="Trazado 568" d="M420,50.06V46.67h2.26v3.39Z" transform="translate(-277.543)" fill="#969696" fill-rule="evenodd"/>
    <path id="Trazado_569" data-name="Trazado 569" d="M244.632,235.592h-11.3v-2.26h11.3Z" transform="translate(-99.914 -177.621)" fill="#969696" fill-rule="evenodd"/>
    <path id="Trazado_570" data-name="Trazado 570" d="M238.981,352.262H233.33V350h5.651Z" transform="translate(-99.914 -288.64)" fill="#969696" fill-rule="evenodd"/>
  </g>
</svg>
