<?xml version="1.0" encoding="utf-8"?>
<!-- Generator: Adobe Illustrator 27.1.1, SVG Export Plug-In . SVG Version: 6.00 Build 0)  -->
<svg version="1.1" id="Capa_1" xmlns="http://www.w3.org/2000/svg" xmlns:xlink="http://www.w3.org/1999/xlink" x="0px" y="0px"
	 viewBox="0 0 32 32" style="enable-background:new 0 0 32 32;" xml:space="preserve">
<style type="text/css">
	.st0{fill:none;}
	.st1{fill:#491217;}
</style>
<g id="Grupo_997" transform="translate(-368 -979)">
	<g id="Elipse_26">
		<circle class="st0" cx="384" cy="995" r="16"/>
	</g>
	<g id="Grupo_996" transform="translate(368 979)">
		<g id="Grupo_937" transform="translate(0)">
			<g id="Elipse_24">
				<g>
					<circle class="st0" cx="16" cy="16" r="16"/>
				</g>
				<g>
					<path class="st1" d="M16,32C7.2,32,0,24.8,0,16S7.2,0,16,0s16,7.2,16,16S24.8,32,16,32z M16,3C8.8,3,3,8.8,3,16
						c0,7.2,5.8,13,13,13c7.2,0,13-5.8,13-13C29,8.8,23.2,3,16,3z"/>
				</g>
			</g>
			<g id="Grupo_936" transform="translate(13.863 7.793)">
				<g id="Grupo_905" transform="translate(0 0)">
					<g id="Trazado_433">
						<path class="st1" d="M0,2.1v5.8c0,1.2,1,2.1,2.1,2.1c1.2,0,2.1-1,2.1-2.1V2.1C4.3,1,3.3,0,2.1,0C1,0,0,1,0,2.1z"/>
					</g>
					<g id="Trazado_434">
						<path class="st1" d="M2.1,11.3c-1.2,0-2.1,1-2.1,2.1v1.2c0,1.2,1,2.1,2.1,2.1c1.2,0,2.1-1,2.1-2.1v-1.2
							C4.3,12.3,3.3,11.3,2.1,11.3"/>
					</g>
				</g>
			</g>
		</g>
	</g>
</g>
</svg>
