<?xml version="1.0" encoding="utf-8"?>
<!-- Generator: Adobe Illustrator 27.1.1, SVG Export Plug-In . SVG Version: 6.00 Build 0)  -->
<svg version="1.1" id="Capa_1" xmlns="http://www.w3.org/2000/svg" xmlns:xlink="http://www.w3.org/1999/xlink" x="0px" y="0px"
	 viewBox="0 0 21.7 26" style="enable-background:new 0 0 21.7 26;" xml:space="preserve">
<style type="text/css">
	.st0{fill:#0A467A;}
</style>
<g>
	<path class="st0" d="M5.2,13.2h11.3c0.3,0,0.6-0.1,0.8-0.3c0.2-0.2,0.3-0.5,0.3-0.8c0-0.6-0.5-1.1-1.1-1.1H5.2
		c-0.6,0-1.1,0.5-1.1,1.1C4.1,12.7,4.6,13.2,5.2,13.2z M17.2,12.1L17.2,12.1L17.2,12.1L17.2,12.1z"/>
	<path class="st0" d="M5.2,9.6h6c0,0,0,0,0,0c0.6,0,1.1-0.5,1.1-1.1c0-0.6-0.5-1.1-1.1-1.1h-6c-0.6,0-1.1,0.5-1.1,1.1
		C4.1,9.1,4.6,9.6,5.2,9.6z"/>
	<path class="st0" d="M16.6,16.8c0.6,0,1.1-0.5,1.1-1.1s-0.5-1.1-1.1-1.1H5.2c-0.6,0-1.1,0.5-1.1,1.1s0.5,1.1,1.1,1.1H16.6z"/>
	<path class="st0" d="M19.6,0H2.1C0.9,0,0,0.9,0,2.1v21c0,0.6,0.2,1.1,0.6,1.5c0.8,0.9,2.3,1,3.2,0.2L4.7,24l1.5,1.4
		c0.4,0.4,1,0.6,1.5,0.6v0c0.6,0,1.1-0.2,1.5-0.6l1.5-1.4l1.5,1.4c0.9,0.8,2.2,0.8,3,0L17,24l0.9,0.8c0.4,0.4,1,0.6,1.5,0.6
		c0.6,0,1.2-0.2,1.6-0.7c0.4-0.4,0.7-1,0.7-1.6v-21C21.7,0.9,20.8,0,19.6,0z M4,21.7l-1.7,1.5c0,0-0.1,0-0.1-0.1V2.2h17.3l0,21
		l-0.1,0l-1.7-1.5c-0.4-0.4-1-0.4-1.5,0l-2.3,2c0,0-0.1,0-0.1,0l-2.3-2c-0.4-0.4-1-0.4-1.5,0l-2.3,2c0,0-0.1,0-0.1,0l-2.3-2
		c-0.2-0.2-0.5-0.3-0.7-0.3l0,0.5c0,0,0,0,0,0h0v-0.5C4.5,21.4,4.2,21.5,4,21.7z"/>
</g>
</svg>
