<svg xmlns="http://www.w3.org/2000/svg" width="18.117" height="17.498" viewBox="0 0 18.117 17.498">
  <g id="Grupo_1362" data-name="Grupo 1362" transform="translate(0 0)">
    <g id="Grupo_1363" data-name="Grupo 1363" transform="translate(0 0)">
      <path id="Trazado_753" data-name="Trazado 753" d="M17.182,252.394a.935.935,0,0,0-.935.935v3.225h0a.935.935,0,0,1-.935.935H2.8a.935.935,0,0,1-.935-.935v-3.225a.935.935,0,1,0-1.87,0v3.225H0a2.8,2.8,0,0,0,2.8,2.8H15.313a2.8,2.8,0,0,0,2.8-2.8v-3.225a.935.935,0,0,0-.935-.935Z" transform="translate(0 -241.86)"/>
      <path id="Trazado_754" data-name="Trazado 754" d="M91.574,0a.935.935,0,0,0-.935.935v8L87.706,6a.935.935,0,1,0-1.323,1.323l4.546,4.546a.932.932,0,0,0,1.285,0l.016-.016,4.534-4.529A.935.935,0,1,0,95.442,6L92.509,8.931v-8A.935.935,0,0,0,91.574,0Z" transform="translate(-82.515 0.001)"/>
    </g>
  </g>
</svg>
