<?xml version="1.0" encoding="utf-8"?>
<!-- Generator: Adobe Illustrator 27.1.1, SVG Export Plug-In . SVG Version: 6.00 Build 0)  -->
<svg version="1.1" id="Capa_1" xmlns="http://www.w3.org/2000/svg" xmlns:xlink="http://www.w3.org/1999/xlink" x="0px" y="0px"
	 viewBox="0 0 25.3 25.2" style="enable-background:new 0 0 25.3 25.2;" xml:space="preserve">
<style type="text/css">
	.st0{fill-rule:evenodd;clip-rule:evenodd;fill:#0A467A;}
</style>
<path class="st0" d="M18.9,1.3c-0.3-0.3-0.6-0.4-1-0.4S17.2,1,17,1.3L1.8,16.4c-0.2,0.2-0.4,0.5-0.4,0.8l-0.5,5.6c0,0.1,0,0.2,0,0.2
	c0,0.4,0.2,0.7,0.5,0.9c0.3,0.2,0.6,0.3,1,0.3l5.6-0.5c0.3,0,0.6-0.2,0.8-0.4L23.9,8.2c0.5-0.5,0.5-1.4,0-1.9L18.9,1.3z M7.2,21.2
	l-3.5,0.3L4,18l9.3-9.3l3.1,3.1L7.2,21.2z M18.4,9.9l-3.1-3.1l2.6-2.6l3.1,3.1L18.4,9.9z"/>
</svg>
