<?xml version="1.0" encoding="utf-8"?>
<!-- Generator: Adobe Illustrator 27.1.1, SVG Export Plug-In . SVG Version: 6.00 Build 0)  -->
<svg version="1.1" id="Capa_1" xmlns="http://www.w3.org/2000/svg" xmlns:xlink="http://www.w3.org/1999/xlink" x="0px" y="0px"
	 viewBox="0 0 33.8 27.8" style="enable-background:new 0 0 33.8 27.8;" xml:space="preserve">
<style type="text/css">
	.st0{fill:#FFFFFF;}
</style>
<g>
	<path class="st0" d="M11.3,20.2H6.9c-2.5-0.1-4.5-2.2-4.4-4.7c0.1-2.4,2-4.3,4.3-4.4c0.7,0,1.2-0.6,1.2-1.3l0-0.2
		C7.9,8,8.3,6.3,9.4,5s2.5-2.2,4.2-2.4c0.2,0,0.5,0,0.7-0.1c1.3,0,2.7,0.4,3.7,1.2c0.5,0.4,1.3,0.4,1.8-0.2c0.4-0.5,0.4-1.3-0.2-1.8
		l-0.1-0.1C18,0.6,16.2,0,14.3,0h0C12,0,9.7,1,8.1,2.6C6.5,4.3,5.6,6.4,5.6,8.7C2.4,9.4,0.1,12.2,0,15.4c-0.1,3.9,2.9,7.1,6.8,7.2
		l4.5,0c0,0,0,0,0,0c0.7,0,1.2-0.5,1.2-1.2c0-0.3-0.1-0.7-0.3-0.9C12,20.3,11.7,20.2,11.3,20.2z"/>
	<path class="st0" d="M29.3,9.2c-0.2-1.9-1.3-3.7-2.9-4.8c-0.9-0.5-1.9-0.8-2.9-0.9h-0.4c-0.9,0-1.8,0.2-2.6,0.6
		c-0.3,0.2-0.5,0.4-0.6,0.7c-0.1,0.3-0.1,0.7,0.1,1c0.3,0.6,1.1,0.9,1.7,0.6C22.7,5.9,24,6,25,6.6c1.2,0.8,1.9,2.1,1.8,3.6
		c0,0.6,0.4,1.1,1,1.2c2,0.5,3.5,2.3,3.5,4.4c0,2.6-2.1,4.4-5.1,4.4h-3.7c-0.7,0-1.3,0.5-1.3,1.2c0,0.7,0.5,1.3,1.3,1.3h3.7
		c4.3,0,7.6-2.9,7.6-6.8C33.9,12.9,32,10.2,29.3,9.2z"/>
	<path class="st0" d="M21.1,16.4c0,0-0.1-0.1-0.1-0.1l-3.2-3.2c-0.3-0.3-0.7-0.4-1-0.4l-0.1,0c-0.3,0-0.6,0.2-0.8,0.4l-3.2,3.2
		c-0.3,0.2-0.4,0.5-0.5,0.9c0,0.3,0.1,0.7,0.3,0.9c0.5,0.5,1.3,0.6,1.8,0.1c0,0,0.1-0.1,0.1-0.1l1-1v9.3c0,0.3,0.1,0.7,0.4,0.9
		c0.2,0.2,0.6,0.4,0.9,0.4c0.7,0,1.3-0.6,1.3-1.3v-9.3l1,1c0.5,0.5,1.3,0.6,1.8,0.1c0.3-0.2,0.4-0.5,0.4-0.9
		C21.5,17,21.4,16.7,21.1,16.4z"/>
</g>
</svg>
