<svg xmlns="http://www.w3.org/2000/svg" xmlns:xlink="http://www.w3.org/1999/xlink" width="198"
                        height="108.108" viewBox="0 0 198 108.108">
                        <defs>
                            <linearGradient id="linear-gradient" x1="0.52" y1="-0.657" x2="0.477" y2="1.819"
                                gradientUnits="objectBoundingBox">
                                <stop offset="0.109" stop-color="#009ad8" />
                                <stop offset="0.603" stop-color="#0068b1" />
                                <stop offset="1" stop-color="#003e5b" />
                            </linearGradient>
                            <linearGradient id="linear-gradient-2" x1="0.518" y1="-0.633" x2="0.479" y2="1.843"
                                xlink:href="#linear-gradient" />
                            <linearGradient id="linear-gradient-3" x1="0.522" y1="-0.209" x2="0.438" y2="1.647"
                                xlink:href="#linear-gradient" />
                            <linearGradient id="linear-gradient-4" x1="0.518" y1="-0.198" x2="0.433" y2="1.658"
                                xlink:href="#linear-gradient" />
                            <linearGradient id="linear-gradient-5" x1="0.517" y1="-0.578" x2="0.478" y2="1.897"
                                gradientUnits="objectBoundingBox">
                                <stop offset="0.109" stop-color="#c3c4ca" />
                                <stop offset="0.603" stop-color="#727276" />
                                <stop offset="1" stop-color="#434041" />
                            </linearGradient>
                            <linearGradient id="linear-gradient-6" x1="0.582" y1="-0.176" x2="0.391" y2="1.689"
                                xlink:href="#linear-gradient-5" />
                            <linearGradient id="linear-gradient-7" x1="0.568" y1="-0.166" x2="0.377" y2="1.695"
                                xlink:href="#linear-gradient-5" />
                            <radialGradient id="radial-gradient" cx="0.5" cy="0.5" r="5.371"
                                gradientTransform="translate(0.65 4.57) scale(0.093 0.093)"
                                gradientUnits="objectBoundingBox">
                                <stop offset="0.011" stop-color="#c8cacf" />
                                <stop offset="1" stop-color="#fff" />
                            </radialGradient>
                            <linearGradient id="linear-gradient-8" x1="1.153" y1="0.353" x2="0.729" y2="0.521"
                                gradientUnits="objectBoundingBox">
                                <stop offset="0.212" stop-color="#009ad8" />
                                <stop offset="0.302" stop-color="#0080ba" />
                                <stop offset="0.451" stop-color="#025c8f" />
                                <stop offset="0.585" stop-color="#03426f" />
                                <stop offset="0.698" stop-color="#03325c" />
                                <stop offset="0.776" stop-color="#042d56" />
                                <stop offset="0.816" stop-color="#02264d" />
                                <stop offset="0.924" stop-color="#00173a" />
                                <stop offset="1" stop-color="#001234" />
                            </linearGradient>
                            <linearGradient id="linear-gradient-9" x1="-0.666" y1="0.656" x2="0.169" y2="0.516"
                                gradientUnits="objectBoundingBox">
                                <stop offset="0.109" stop-color="#ffed00" />
                                <stop offset="0.399" stop-color="#e56c34" />
                                <stop offset="1" stop-color="#bc0c1d" />
                            </linearGradient>
                            <linearGradient id="linear-gradient-10" x1="-0.601" y1="0.988" x2="0.484" y2="0.324"
                                gradientUnits="objectBoundingBox">
                                <stop offset="0.089" stop-color="#e77036" />
                                <stop offset="1" stop-color="#bc0c1d" />
                            </linearGradient>
                            <linearGradient id="linear-gradient-11" x1="0.867" y1="0.966" x2="0.397" y2="0.355"
                                gradientUnits="objectBoundingBox">
                                <stop offset="0.109" stop-color="#fd0" />
                                <stop offset="0.594" stop-color="#e77036" />
                                <stop offset="1" stop-color="#cb3a21" />
                            </linearGradient>
                            <linearGradient id="linear-gradient-12" x1="0.199" y1="0.061" x2="0.402" y2="0.529"
                                gradientUnits="objectBoundingBox">
                                <stop offset="0" stop-color="#2cb3e5" />
                                <stop offset="0.639" stop-color="#104279" />
                                <stop offset="1" stop-color="#001335" />
                            </linearGradient>
                            <linearGradient id="linear-gradient-13" x1="0.01" y1="0.224" x2="0.851" y2="1.075"
                                gradientUnits="objectBoundingBox">
                                <stop offset="0.109" stop-color="#04b2e1" />
                                <stop offset="0.421" stop-color="#0084c7" />
                                <stop offset="0.729" stop-color="#0068b1" />
                                <stop offset="0.983" stop-color="#00183b" />
                            </linearGradient>
                            <linearGradient id="linear-gradient-14" x1="0.01" y1="0.224" x2="0.851" y2="1.075"
                                gradientUnits="objectBoundingBox">
                                <stop offset="0.002" stop-color="#fffdf8" />
                                <stop offset="0.506" stop-color="#69a4d4" stop-opacity="0.459" />
                                <stop offset="1" stop-color="#69a4d4" stop-opacity="0" />
                            </linearGradient>
                        </defs>
                        <g id="Grupo_1184" data-name="Grupo 1184" transform="translate(-861 -202.893)">
                            <g id="Grupo_1" data-name="Grupo 1" transform="translate(839.782 181.308)">
                                <path id="Trazado_1" data-name="Trazado 1"
                                    d="M122.651,77.123h-10.86a5.278,5.278,0,0,0-2.2.35,1.434,1.434,0,0,0-1,1.285v.724q0,1.821,3.293,1.822h5.372a6.174,6.174,0,0,1,3.842,1.144,3.518,3.518,0,0,1,1.506,2.92v2.148a3.809,3.809,0,0,1-1.518,2.967,3.955,3.955,0,0,1-1.915,1,11.548,11.548,0,0,1-2.406.187H104.48V88.661h11.187a3.011,3.011,0,0,0,2.313-.678,3.052,3.052,0,0,0,.42-1.868q0-1.8-2.686-1.8h-5.068a8.176,8.176,0,0,1-4.251-1.005,3.328,3.328,0,0,1-1.868-2.919V78.034a3.555,3.555,0,0,1,2.148-3.153,8.144,8.144,0,0,1,4.018-.771h11.958Z"
                                    fill="url(#linear-gradient)" />
                                <path id="Trazado_2" data-name="Trazado 2"
                                    d="M146.965,87.33a3.777,3.777,0,0,1-2.009,3.433,8.1,8.1,0,0,1-4.3.911h-7.124a8.381,8.381,0,0,1-4.893-1.168,3.705,3.705,0,0,1-1.623-3.176V78.571a3.954,3.954,0,0,1,2.055-3.55,8.712,8.712,0,0,1,4.461-.911h7.124a8.053,8.053,0,0,1,4.344.911,3.889,3.889,0,0,1,1.962,3.55Zm-4.111-.818V79.388a1.908,1.908,0,0,0-.957-1.775,4.214,4.214,0,0,0-2.383-.537h-4.881a4.616,4.616,0,0,0-2.5.537,1.888,1.888,0,0,0-1.005,1.775v7.077a1.831,1.831,0,0,0,1.005,1.705,4.094,4.094,0,0,0,2.195.491h5.465a3.748,3.748,0,0,0,2.1-.491A1.807,1.807,0,0,0,142.854,86.512Z"
                                    fill="url(#linear-gradient-2)" />
                                <path id="Trazado_3" data-name="Trazado 3"
                                    d="M161.562,77.123h-5.231l-.024,14.551H152.2V72.5a3.526,3.526,0,0,1,1.8-3.094,8.176,8.176,0,0,1,4.507-1.157h3.06V71.1h-2.148a3.666,3.666,0,0,0-2.243.642,1.949,1.949,0,0,0-.864,1.624v.793h5.255Z"
                                    fill="url(#linear-gradient-3)" />
                                <path id="Trazado_4" data-name="Trazado 4"
                                    d="M175.9,77.31h-5.208V91.674h-4.11V68.247h4.11v6.12H175.9Z"
                                    fill="url(#linear-gradient-4)" />
                                <path id="Trazado_5" data-name="Trazado 5"
                                    d="M200.076,87.33a3.778,3.778,0,0,1-2.008,3.433,8.1,8.1,0,0,1-4.3.911h-7.123a8.376,8.376,0,0,1-4.893-1.168,3.706,3.706,0,0,1-1.624-3.176V78.571a3.954,3.954,0,0,1,2.055-3.55,8.714,8.714,0,0,1,4.462-.911h7.123a8.051,8.051,0,0,1,4.344.911,3.887,3.887,0,0,1,1.962,3.55Zm-4.11-.818V79.388a1.908,1.908,0,0,0-.958-1.775,4.213,4.213,0,0,0-2.382-.537h-4.882a4.621,4.621,0,0,0-2.5.537,1.888,1.888,0,0,0-1,1.775v7.077a1.83,1.83,0,0,0,1,1.705,4.1,4.1,0,0,0,2.2.491h5.465a3.747,3.747,0,0,0,2.1-.491A1.808,1.808,0,0,0,195.966,86.512Z"
                                    fill="url(#linear-gradient-5)" />
                                <path id="Trazado_6" data-name="Trazado 6"
                                    d="M208.788,91.674h-4.111V74.11h4.111Zm0-23.31v3.06h-3.924v-3.06Z"
                                    fill="url(#linear-gradient-6)" />
                                <path id="Trazado_7" data-name="Trazado 7" d="M218.643,91.674h-4.11V68.318h4.11Z"
                                    fill="url(#linear-gradient-7)" />
                            </g>
                            <text id="SOFTWARE" transform="translate(955.809 285.958)" fill="#3d3d3d" font-size="9.679"
                                font-family="Helvetica" letter-spacing="0.5em">
                                <tspan x="0" y="0">SOFTWARE</tspan>
                            </text>
                            <ellipse id="Elipse_1" data-name="Elipse 1" cx="36.915" cy="3.437" rx="36.915" ry="3.437"
                                transform="translate(861 304.127)" fill="url(#radial-gradient)" />
                            <g id="Grupo_3" data-name="Grupo 3" transform="translate(839.782 181.308)">
                                <g id="Grupo_2" data-name="Grupo 2">
                                    <path id="Trazado_8" data-name="Trazado 8"
                                        d="M48.507,97.055a16.741,16.741,0,0,1,9.527-30.441c-4.38-5.366-7.428-10.6-8.839-16.113a34.049,34.049,0,0,0,8.938,66.9,34.4,34.4,0,0,0,3.764-.211C60.407,109.2,55.82,102.442,48.507,97.055Z"
                                        fill="url(#linear-gradient-8)" />
                                    <path id="Trazado_9" data-name="Trazado 9"
                                        d="M79.353,56.739h0c-.042-.032-.08-.064-.122-.095-.278-.22-.554-.44-.839-.651C58.213,40.333,60.179,21.585,60.179,21.585,54,32.714,52.735,41.7,55.256,50.087c.078.261.155.523.241.783.078.236.163.47.247.705s.167.467.256.7.191.486.29.728q.136.332.28.662c.109.249.219.5.334.748.1.205.195.411.3.616.127.26.252.521.385.781.082.159.17.317.255.476q.507.956,1.076,1.907c.043.071.082.142.125.213.191.315.393.631.594.946.086.135.171.269.259.4.2.313.415.625.629.938l.271.394q.339.484.691.971c.076.1.154.208.231.312.26.353.524.707.8,1.061l.023.029q1.934,2.508,4.26,5.06l.032.035q1.566,1.727,3.294,3.486a16.233,16.233,0,0,1,4.734,10.433c.015.292.023.587.023.883a16.744,16.744,0,0,1-16,16.726A30.379,30.379,0,0,1,67.5,116.09,34.04,34.04,0,0,0,79.353,56.739Z"
                                        fill="url(#linear-gradient-9)" />
                                </g>
                                <path id="Trazado_10" data-name="Trazado 10"
                                    d="M68.659,63.076l1.462,8.965a17.333,17.333,0,0,1,2.025,2.5C81.358,87.376,76.041,103.6,67.5,116.09A34.026,34.026,0,0,0,88.214,67.428C82.1,66.093,68.659,63.076,68.659,63.076Z"
                                    fill="url(#linear-gradient-10)" />
                                <path id="Trazado_11" data-name="Trazado 11"
                                    d="M92.181,83.357A33.977,33.977,0,0,0,79.353,56.739h0c-.042-.032-.08-.064-.122-.095-.278-.22-.554-.44-.839-.651C58.213,40.333,60.179,21.585,60.179,21.585,54,32.714,52.735,41.7,55.256,50.087c.078.261.155.523.241.783.078.236.163.47.247.705s.167.467.256.7.191.486.29.728q.136.332.28.662c.109.249.219.5.334.748.1.205.195.411.3.616.127.26.252.521.385.781.082.159.17.317.255.476q.507.956,1.076,1.907c.043.071.082.142.125.213.191.315.393.631.594.946.086.135.171.269.259.4.2.313.415.625.629.938l.271.394q.339.484.691.971c.076.1.154.208.231.312.26.353.524.707.8,1.061l.023.029q1.934,2.508,4.26,5.06l.032.035q1.566,1.727,3.294,3.486c10.476,11.33,14.646,17.8,14.634,32.526A33.869,33.869,0,0,0,92.181,83.357Z"
                                    fill="url(#linear-gradient-11)" />
                                <path id="Trazado_12" data-name="Trazado 12"
                                    d="M61.9,117.194c-1.49-7.994-6.077-14.752-13.39-20.139a16.849,16.849,0,0,1-4.545-4.788h0c-.067-.107-.135-.213-.2-.321-7.4-11.737-8.222-22.733-5.013-36.57A34.041,34.041,0,0,0,58.133,117.4,34.4,34.4,0,0,0,61.9,117.194Z"
                                    fill="url(#linear-gradient-12)" />
                                <path id="Trazado_13" data-name="Trazado 13"
                                    d="M28.058,67.395A34.047,34.047,0,0,0,58.133,117.4a34.4,34.4,0,0,0,3.764-.211c-1.49-7.994-6.077-14.752-13.39-20.139C40.7,91.639,32.33,86.659,28.058,67.395Z"
                                    fill="url(#linear-gradient-13)" />
                                <path id="Trazado_14" data-name="Trazado 14"
                                    d="M28.058,67.395A34.047,34.047,0,0,0,58.133,117.4a34.4,34.4,0,0,0,3.764-.211c-1.49-7.994-6.077-14.752-13.39-20.139C40.7,91.639,32.33,86.659,28.058,67.395Z"
                                    opacity="0.36" fill="url(#linear-gradient-14)"
                                    style="mix-blend-mode: hard-light;isolation: isolate" />
                            </g>
                        </g>
                    </svg>